<svg width="18" height="18" viewBox="0 0 18 18" fill="none" xmlns="http://www.w3.org/2000/svg">
<path d="M8.98957 18.0072C7.56307 18.0072 6.32287 16.9902 6.02767 15.6119H1.63522C1.46685 15.611 1.30247 15.5605 1.16264 15.4667C1.02282 15.3729 0.913746 15.2399 0.84907 15.0845C0.71722 14.7501 0.79642 14.3816 1.05022 14.1426C1.04887 14.1426 1.30672 13.8402 1.57492 13.1994C1.84042 12.5568 2.15677 11.4368 2.15677 9.75736C2.15677 7.76611 2.59552 5.03281 4.68577 3.32011C5.24258 2.85911 5.88027 2.5057 6.56632 2.27791C6.59647 1.88416 6.71887 1.28071 7.14772 0.776256C7.45687 0.418056 8.02927 -0.00674438 9.00892 -0.00674438C10.0187 -0.00674438 10.5857 0.419856 10.8836 0.777606C11.2076 1.15966 11.398 1.65286 11.4502 2.24551C12.1397 2.48071 12.7791 2.84307 13.3352 3.31381C14.4791 4.28266 15.8417 6.19066 15.8417 9.77761C15.8417 11.5002 16.1527 12.6185 16.4137 13.2534C16.6531 13.8479 16.8943 14.0994 16.9213 14.126C17.1935 14.3843 17.2754 14.729 17.1634 15.0521C17.1081 15.196 17.0155 15.3227 16.895 15.419C16.7746 15.5154 16.6306 15.5779 16.478 15.6002C16.447 15.6119 16.3903 15.6119 16.3529 15.6119H11.9492C11.6536 16.9902 10.4143 18.0072 8.98957 18.0072ZM6.48982 15.6114C6.77602 16.7369 7.80787 17.5568 8.98957 17.5568C10.1695 17.5568 11.2009 16.7369 11.4884 15.6114H6.48982ZM11.7629 15.1614H16.3543C16.3646 15.1614 16.3759 15.1623 16.3862 15.1605C16.5626 15.1335 16.6877 15.0345 16.7426 14.895C16.768 14.8231 16.7718 14.7454 16.7535 14.6714C16.7352 14.5974 16.6956 14.5305 16.6396 14.4788L16.6054 14.445C16.5496 14.3892 16.2647 14.0841 15.9979 13.4222C15.722 12.7517 15.3922 11.5736 15.3922 9.77671C15.3922 6.36166 14.116 4.56346 13.045 3.65626C12.4958 3.19044 11.8581 2.84039 11.1703 2.62711C11.1259 2.61354 11.0867 2.58659 11.0582 2.54994C11.0297 2.51329 11.0132 2.46873 11.011 2.42236C10.9849 1.86121 10.8265 1.40491 10.5389 1.06606C10.3013 0.780306 9.84412 0.441906 9.00847 0.441906C8.19937 0.441906 7.73542 0.782106 7.48882 1.06786C7.08607 1.54171 7.01452 2.13706 7.00732 2.44936C7.00625 2.49705 6.99008 2.54319 6.96113 2.58111C6.93218 2.61904 6.89195 2.6468 6.84622 2.66041C6.38002 2.79856 5.67622 3.08476 4.97107 3.66661C3.01672 5.26816 2.60632 7.86196 2.60632 9.75601C2.60632 11.5097 2.27107 12.69 1.98982 13.3709C1.68337 14.1021 1.38412 14.441 1.37152 14.4549C1.30837 14.5112 1.2643 14.5858 1.24543 14.6683C1.22656 14.7508 1.23383 14.8371 1.26622 14.9153C1.29683 14.9876 1.34804 15.0494 1.41348 15.093C1.47893 15.1365 1.55572 15.1598 1.63432 15.1601H11.7629V15.1614Z" fill="white"/>
</svg>
