<svg width="32" height="28" viewBox="0 0 32 28" fill="none" xmlns="http://www.w3.org/2000/svg">
<path d="M0.444449 27.9851C0.558286 28.0143 0.679228 27.9982 0.781058 27.9402C0.882889 27.8822 0.957403 27.7871 0.988449 27.6754C1.904 24.3127 5.62489 23.4412 7.84889 22.9197C8.40623 22.7894 8.84623 22.6861 9.13245 22.5645C11.6658 21.4821 12.4916 19.7409 12.7387 18.4704C12.7534 18.3948 12.7475 18.3167 12.7218 18.2441C12.696 18.1714 12.6513 18.1067 12.592 18.0565C11.2729 16.9356 10.16 15.253 9.45778 13.3175C9.43797 13.262 9.40681 13.2111 9.36623 13.1679C8.43734 12.1739 7.904 11.123 7.904 10.2856C7.904 9.7965 8.09156 9.46837 8.51378 9.22075C8.57703 9.18353 8.62988 9.13142 8.66758 9.0691C8.70529 9.00678 8.72666 8.93622 8.72978 8.86375C8.92623 4.4065 12.1511 0.897749 16.1067 0.874999L16.2018 0.881124C20.1769 0.935374 23.3813 4.51937 23.496 9.03962C23.4976 9.10141 23.5125 9.16215 23.5398 9.21782C23.5671 9.27349 23.6061 9.3228 23.6542 9.3625C23.9324 9.59437 24.0622 9.88837 24.0622 10.2874C24.0622 10.9882 23.6827 11.8501 22.9947 12.7129C22.9619 12.7544 22.9366 12.8012 22.92 12.8511C22.2089 15.0701 20.9324 17.0292 19.4196 18.228C19.3569 18.2778 19.3091 18.3434 19.2812 18.4178C19.2534 18.4922 19.2465 18.5727 19.2613 18.6506C19.5084 19.9202 20.3342 21.6606 22.8676 22.7447C23.1671 22.8725 23.632 22.9722 24.2213 23.0974C26.4231 23.5664 30.1076 24.353 31.0116 27.6754C31.0267 27.7309 31.0529 27.7829 31.0885 27.8284C31.1241 27.874 31.1684 27.9122 31.219 27.9409C31.2696 27.9696 31.3255 27.9882 31.3834 27.9956C31.4412 28.003 31.5001 27.9992 31.5564 27.9842C31.6128 27.9693 31.6657 27.9436 31.712 27.9085C31.7582 27.8735 31.797 27.8298 31.8262 27.78C31.8553 27.7302 31.8742 27.6753 31.8818 27.6183C31.8893 27.5613 31.8854 27.5034 31.8702 27.4479C30.8258 23.6092 26.6516 22.7194 24.4098 22.2416C23.8898 22.1305 23.4409 22.0351 23.2222 21.9406C21.5689 21.2336 20.5502 20.1565 20.1902 18.7337C21.7253 17.4361 23.0098 15.4341 23.744 13.1889C24.5236 12.1914 24.952 11.1641 24.952 10.2865C24.952 9.70112 24.76 9.21287 24.3796 8.83137C24.168 3.92787 20.6133 0.0664995 16.2018 0.00437451L16.0693 0.00262451C11.7378 0.0253745 8.168 3.78525 7.856 8.60387C7.29956 9.00637 7.01689 9.57075 7.01689 10.2874C7.01689 11.3225 7.61156 12.5606 8.65245 13.6964C9.37156 15.6415 10.4862 17.3504 11.8133 18.5465C11.4551 19.9745 10.4356 21.0551 8.77867 21.763C8.56445 21.8549 8.13778 21.9555 7.64356 22.071C5.38489 22.5995 1.18223 23.5839 0.129782 27.4496C0.0993879 27.5617 0.115463 27.6811 0.174472 27.7815C0.233481 27.8819 0.330592 27.9552 0.444449 27.9851Z" fill="white"/>
</svg>
