<svg width="697" height="759" viewBox="0 0 697 759" fill="none" xmlns="http://www.w3.org/2000/svg">
<path opacity="0.2" fill-rule="evenodd" clip-rule="evenodd" d="M637.338 10.4273C640.383 8.9195 644.444 10.6682 642.75 14.654C640.936 18.9223 634.228 18.9751 630.44 18.8905C630.819 18.8706 632.04 14.9565 632.458 14.3651C633.69 12.6203 635.466 11.3559 637.338 10.4273ZM602.27 88.1984C601.195 89.1167 602.183 88.2845 602.27 88.1984V88.1984ZM640.878 30.2443C642.699 31.6204 642.784 34.0515 641.295 35.6978C639.522 37.6578 636.287 37.5881 633.871 37.3984C632.779 37.3125 626.945 36.8536 628.328 35.9089C628.222 35.9487 628 36.0452 627.762 36.1764C627.634 36.6387 627.499 37.0993 627.359 37.5579C627.393 37.5778 627.422 37.599 627.459 37.6187C627.419 37.6016 627.391 37.583 627.356 37.5655C625.951 42.1494 623.952 46.5143 621.335 50.5983C622.313 50.2169 623.327 49.928 624.355 49.7991C627.399 49.417 633.8 51.7523 630.393 55.7609C627.127 59.6036 622.047 55.4853 618.343 54.9189C614.747 59.8795 610.782 64.6339 606.628 69.2295C606.882 69.3082 607.105 69.4722 607.233 69.7277C608.899 68.8913 610.636 67.6951 612.177 67.3707C614.402 66.9032 618.964 66.6182 620.644 68.5861C622.711 71.006 620.493 72.9735 618.05 73.439C614.507 74.1142 609.87 72.4051 606.462 71.2504C606.072 71.3188 605.646 71.2062 605.392 70.898C605.317 70.8736 605.241 70.8496 605.168 70.8263C600.961 75.3996 596.593 79.822 592.252 84.1475C592.298 84.1451 592.344 84.1423 592.392 84.1398C593.525 83.4052 594.739 82.8023 596.055 82.4862C599.1 81.751 602.682 81.7456 605.151 83.9223C607.611 86.0897 608.48 89.8819 605.933 92.3183C600.835 97.1952 593.333 86.0851 590.762 85.6225C586.351 89.9721 581.686 94.0363 576.948 98.0185C577.486 97.8564 578.038 97.7371 578.608 97.6833C583.252 97.2414 594.149 102.865 588.447 108.407C583.478 113.235 577.735 103.949 573.734 100.702C569.269 104.414 564.78 108.1 560.417 111.93C562.796 111.304 565.095 111.211 567.644 111.971C570.282 112.76 574.539 114.727 572.869 118.25C571.171 121.833 566.059 120.206 563.397 119.07C561.945 118.45 559.034 116.358 556.478 115.478C549.516 121.978 543.485 129.136 538.917 137.567C536.065 142.831 533.901 148.455 532.376 154.234C531.403 157.923 529.486 164.119 529.866 168.92C528.045 159.311 531.353 147.768 534.915 139.177C538.189 131.277 543.088 124.341 548.824 118.097C547.388 113.819 535.281 107.654 542.522 103.675C546.368 101.571 550.303 105.057 551.142 108.75C551.718 111.288 550.837 114.478 549.902 116.942C551.707 115.039 553.583 113.196 555.516 111.415C558.187 108.953 560.922 106.563 563.683 104.203C559.137 99.98 554.839 87.9043 560.938 85.9259C569.945 83.0127 565.601 99.4897 564.971 102.578C564.792 102.588 564.653 102.535 564.551 102.421C564.602 102.704 564.66 103.006 564.731 103.311C570.016 98.8168 575.38 94.4111 580.567 89.8098C580.1 89.4686 579.358 88.1646 578.775 87.4707C577.458 85.9063 576.199 84.272 575.279 82.4416C573.826 79.549 572.425 74.9347 576.282 73.2308C580.477 71.3745 582.467 76.5932 582.495 79.707C582.514 81.8606 581.92 83.9067 581.61 86.0177C581.513 86.6761 581.883 89.6434 580.977 88.3673C581.019 88.8379 581.025 89.1788 581.004 89.4205C581.935 88.5903 582.859 87.7511 583.777 86.9059C583.735 86.7992 583.703 86.6829 583.696 86.5481C583.648 85.6198 584.593 85.2617 585.255 85.5333C586.467 84.3948 587.666 83.242 588.845 82.0663C591.342 79.5755 593.876 77.0136 596.392 74.3972C595.847 73.934 596.064 73.2921 595.554 72.8003C595.045 72.3097 594.042 72.0386 593.443 71.5829C591.937 70.4361 590.688 68.7647 589.785 67.1197C588.295 64.4016 586.37 58.6992 590.729 57.4011C595.221 56.061 597.499 61.5501 597.786 64.9825C597.842 65.6474 597.335 71.6395 596.949 73.8154C601.605 68.953 606.184 63.9082 610.333 58.7759C609.076 58.7651 605.513 56.2199 604.793 55.5253C603.035 53.831 600.242 50.0867 603.326 48.103C606.067 46.3435 609.445 48.8882 610.615 51.3624C610.808 51.7698 611.485 55.5623 611.537 57.264C613.255 55.0876 614.893 52.8985 616.417 50.7023C617.434 49.2422 618.384 47.7436 619.273 46.2132C619.059 46.0934 618.858 45.8846 618.668 45.6249C614.097 44.8601 608.273 37.8109 613.643 35.3545C616.2 34.1865 618.972 36.5934 620.223 38.5646C620.479 38.9678 620.894 40.9957 621.231 42.5953C623.789 37.5254 625.744 32.1584 627.233 26.6558C626.835 26.5583 626.498 26.2579 626.454 25.741C624.236 24.4911 622.483 23.4503 620.935 21.0453C619.974 19.5516 618.242 16.1386 621.071 15.3078C624.751 14.2268 627.061 19.7838 627.36 22.5213C627.395 22.8391 627.393 23.7633 627.381 24.6103C627.509 24.593 627.638 24.5949 627.764 24.617C628.611 21.2098 629.288 17.7588 629.826 14.3021C627.818 13.6638 627.476 3.23297 628.814 1.74703C631.805 -1.58015 633.912 3.22287 633.751 5.76201C633.561 8.75591 632.188 11.48 630.553 13.8977C630.377 14.1538 630.427 14.1413 630.382 13.7848C630.357 13.961 630.297 14.0911 630.209 14.1854C630.292 15.7612 630.456 17.3746 630.376 18.7691C630.148 22.7627 629.675 26.7796 628.99 30.722C628.823 31.6809 628.633 32.6319 628.419 33.5747C630.034 32.2138 632.212 31.0043 633.064 30.626C635.275 29.6451 638.683 28.5855 640.878 30.2443ZM529.505 168.541C529.611 169.824 529.928 170.995 530.552 171.954C530.094 170.858 529.751 169.715 529.505 168.541Z" fill="#C1DEE2"/>
<g opacity="0.5">
<path opacity="0.5" fill-rule="evenodd" clip-rule="evenodd" d="M609.588 141.189C613.233 136 619.997 122.822 625.127 120.968C628.432 119.773 627.468 132.127 627.509 134.483C627.668 143.596 626.779 152.652 625.682 161.688C623.705 177.986 617.24 192.501 608.373 206.372C603.81 213.51 598.458 220.734 591.045 225.187C587.633 227.238 583.528 227.581 580.158 229.349C576.234 231.406 578.371 229.743 576.602 233.825C574.146 239.494 573.361 246.807 572.224 252.855C567.007 280.62 554.375 427.395 556.565 455.638C556.759 458.141 553.263 458.74 553.088 455.684C552.161 439.48 560.188 327.269 564.238 290.572C568.288 253.876 572.386 221.457 576.496 208.761C581.481 193.358 590.485 174.835 597.98 160.472C601.461 153.799 605.256 147.355 609.588 141.189Z" fill="#69A1AC"/>
<path opacity="0.5" fill-rule="evenodd" clip-rule="evenodd" d="M636.642 321.168C646.127 314.216 656.394 327.337 647.811 334.29C643.066 338.134 638.106 336.766 635.313 333.564C633.501 335.77 631.804 338.076 630.174 340.025C625.206 345.962 620.511 352.041 616.025 358.262C606.704 371.185 598.716 384.838 590.364 398.241C582.122 411.47 573.946 424.766 566.475 438.329C560.147 449.821 551.712 463.34 549.545 475.938C552.832 449.22 565.307 423.538 580.162 399.984C594.896 376.623 611.805 351.11 634.619 332.674C632.297 329.265 632.232 324.399 636.642 321.168Z" fill="#C1DEE2"/>
<path opacity="0.5" fill-rule="evenodd" clip-rule="evenodd" d="M456.659 256.006C461.967 257.042 470.64 269.03 475.015 273.597C480.215 279.025 484.932 284.81 489.379 290.871C498.951 303.918 507.512 317.789 514.792 332.255C526.66 355.836 536.168 380.044 543.068 405.723C547.292 421.442 550.027 437.734 551.648 453.912C551.954 456.963 555.158 480.487 550.541 481.121C546.388 481.692 547.671 463.259 547.471 460.752C545.206 432.464 538.423 404.941 528.987 378.278C526.931 372.47 525.022 365.356 521.735 360.129C519.368 356.365 521.718 357.678 517.558 356.253C513.986 355.029 509.917 355.328 506.259 353.829C498.313 350.576 491.951 344.261 486.374 337.908C475.536 325.562 466.947 312.206 462.47 296.386C459.987 287.615 457.705 278.793 456.438 269.75C456.111 267.413 453.241 255.339 456.659 256.006Z" fill="#69A1AC"/>
<path opacity="0.5" fill-rule="evenodd" clip-rule="evenodd" d="M477.605 56.5582C497.598 91.1752 514.028 129.201 524.637 167.716C531.064 191.051 535.559 214.997 540.025 238.769C546.94 275.578 553.481 312.384 555.342 349.847C557.214 387.527 560.915 430.987 548.557 467.278C554.73 430.432 548.853 391.213 547.812 354.138C547.315 336.439 545.874 318.913 543.983 301.318C542.149 284.249 539.152 267.262 536.361 250.328C535.002 242.08 533.574 233.846 532.121 225.615C531.687 223.16 531.503 215.873 529.943 214.196C528.373 212.507 520.361 211.819 517.846 210.58C512.781 208.084 508.016 204.54 503.8 200.795C495.717 193.615 488.685 184.234 483.134 174.986C470.293 153.589 465.159 127.477 465.418 102.696C465.468 97.8847 473.218 46.0746 470.105 45.3611C470.293 45.142 470.47 44.9158 470.637 44.6804C472.994 48.6196 475.306 52.5854 477.605 56.5582Z" fill="#89C5CC"/>
<path opacity="0.5" fill-rule="evenodd" clip-rule="evenodd" d="M693.397 181.408C693.705 180.963 695.713 177.874 694.702 178.071C696.761 177.669 691.871 181.479 697 179.141C694.565 181.438 695.97 184.42 696.003 187.511C696.056 192.529 695.215 197.505 694.268 202.415C692.772 210.177 690.544 217.723 687.31 224.942C680.261 240.674 668.291 255.818 654.08 265.654C647.065 270.51 640.19 272.163 632.189 274.399C627.135 275.811 626.734 278.421 624.052 283.317C618.467 293.515 612.981 303.676 608.056 314.218C602.175 326.806 596.466 339.408 591.08 352.217C572.938 395.365 558.171 440.068 550.416 486.33C550.226 459.068 556.543 430.99 564.512 405.004C570.316 386.072 577.872 367.821 585.931 349.756C587.884 345.379 590.844 339.75 591.673 334.918C592.254 331.532 590.479 328.276 589.666 324.71C586.497 310.822 586.723 295.263 589.506 281.3C592.575 265.904 601.448 258.758 616.459 256.577C621.949 255.78 628.927 256.072 633.96 253.735C639.445 251.19 641.707 242.825 644.826 237.456C653.202 223.032 663.154 209.198 674.582 197.045C677.747 193.68 681.15 190.575 684.76 187.697C687.036 185.881 691.846 183.644 693.397 181.408Z" fill="#89C5CC"/>
<path opacity="0.5" fill-rule="evenodd" clip-rule="evenodd" d="M525.077 456.887H578.349C580.745 456.887 582.686 458.825 582.686 461.216C582.686 461.428 582.671 461.639 582.64 461.848L578.522 489.723C577.267 498.22 569.964 504.515 561.36 504.515H542.066C533.463 504.515 526.159 498.22 524.904 489.723L520.787 461.848C520.437 459.482 522.075 457.282 524.444 456.933C524.654 456.902 524.865 456.887 525.077 456.887Z" fill="#C1DEE2"/>
</g>
<path d="M128 221C153.405 221 174 200.405 174 175C174 149.595 153.405 129 128 129C102.595 129 82 149.595 82 175C82 200.405 102.595 221 128 221Z" fill="#F2F2F2"/>
<path d="M128 141.151C129.438 141.151 130.604 139.985 130.604 138.547C130.604 137.109 129.438 135.943 128 135.943C126.562 135.943 125.396 137.109 125.396 138.547C125.396 139.985 126.562 141.151 128 141.151Z" fill="black" fill-opacity="0.1"/>
<path d="M91.5471 177.604C92.9852 177.604 94.1509 176.438 94.1509 175C94.1509 173.562 92.9852 172.396 91.5471 172.396C90.1091 172.396 88.9434 173.562 88.9434 175C88.9434 176.438 90.1091 177.604 91.5471 177.604Z" fill="black" fill-opacity="0.1"/>
<path d="M164.453 177.604C165.891 177.604 167.057 176.438 167.057 175C167.057 173.562 165.891 172.396 164.453 172.396C163.015 172.396 161.849 173.562 161.849 175C161.849 176.438 163.015 177.604 164.453 177.604Z" fill="black" fill-opacity="0.1"/>
<path d="M128 214.057C129.438 214.057 130.604 212.891 130.604 211.453C130.604 210.015 129.438 208.849 128 208.849C126.562 208.849 125.396 210.015 125.396 211.453C125.396 212.891 126.562 214.057 128 214.057Z" fill="black" fill-opacity="0.1"/>
<path fill-rule="evenodd" clip-rule="evenodd" d="M128 143.755L129.736 174.132H126.264L128 143.755Z" fill="#AFB9C5"/>
<path fill-rule="evenodd" clip-rule="evenodd" d="M143.361 190.361L127.404 176.859L129.859 174.404L143.361 190.361Z" fill="#AFB9C5"/>
<path d="M128 178.472C129.917 178.472 131.472 176.917 131.472 175C131.472 173.083 129.917 171.528 128 171.528C126.083 171.528 124.528 173.083 124.528 175C124.528 176.917 126.083 178.472 128 178.472Z" fill="#C5CFD6"/>
<path fill-rule="evenodd" clip-rule="evenodd" d="M447.241 623.672L477.357 694.411H491.013L472.896 620.205L447.241 623.672Z" fill="#B6D4FF"/>
<path fill-rule="evenodd" clip-rule="evenodd" d="M293.399 623.672L323.513 694.411H337.17L319.052 620.205L293.399 623.672Z" fill="#B6D4FF"/>
<path fill-rule="evenodd" clip-rule="evenodd" d="M63.6084 694.412H77.265L107.38 623.672L81.726 620.205L63.6084 694.412Z" fill="#B6D4FF"/>
<path fill-rule="evenodd" clip-rule="evenodd" d="M217.451 694.412H231.107L261.223 623.672L235.568 620.205L217.451 694.412Z" fill="#B6D4FF"/>
<path fill-rule="evenodd" clip-rule="evenodd" d="M80.4016 458.122V629.406L258.5 629.787L287.788 460.352L80.4016 458.122ZM93.9656 471.826L271.709 473.737L247.082 616.205L93.9656 615.878V471.826Z" fill="#B6D4FF"/>
<path fill-rule="evenodd" clip-rule="evenodd" d="M314.11 352.838L266.238 629.787H475.083L522.957 352.838H314.11Z" fill="#CCE3FF"/>
<path fill-rule="evenodd" clip-rule="evenodd" d="M257.951 352.838L210.078 629.787H416.391L464.264 352.838H257.951Z" fill="#DCEEFF"/>
<path fill-rule="evenodd" clip-rule="evenodd" d="M206.797 629.787H452.381C464.919 629.787 475.083 619.628 475.083 607.095V554.799C475.083 542.267 464.919 532.108 452.381 532.108H206.797C194.259 532.108 184.094 542.267 184.094 554.799V607.095C184.094 619.628 194.259 629.787 206.797 629.787Z" fill="#CCE3FF"/>
<path fill-rule="evenodd" clip-rule="evenodd" d="M79.479 629.787H296.985V532.107H79.479V629.787Z" fill="#DCEEFF"/>
<path fill-rule="evenodd" clip-rule="evenodd" d="M296.986 458.122V629.406L475.084 629.787L504.372 460.352L296.986 458.122ZM310.55 471.826L488.293 473.737L463.666 616.205L310.55 615.878V471.826Z" fill="#B6D4FF"/>
<g clip-path="url(#clip0)">
<path d="M304.646 273.398C332.667 277.311 320.927 309.619 313.052 327.062C303.807 347.538 311.905 361.266 311.905 361.266L355.219 345.872C339.322 325.633 356.879 314.362 352.557 290.232C348.68 268.586 327.636 258.82 314.34 259.281C307.703 259.51 302.271 261.221 297.971 263.415C297.808 263.499 297.652 263.588 297.503 263.682C289.648 255.607 278.775 250.781 266.209 250.781C240.366 250.781 217.148 271.192 217.148 298.294C217.148 325.395 238.097 347.365 263.94 347.365C289.783 347.365 310.732 325.395 310.732 298.294C310.732 289.031 308.55 280.55 304.646 273.398V273.398Z" fill="#19141E"/>
<path fill-rule="evenodd" clip-rule="evenodd" d="M259.369 348.661C259.369 348.661 268.978 348.945 273.073 346.706L259.879 354.999L259.369 348.661Z" fill="#CF3E83"/>
<path d="M223.546 312.406C224.987 323.567 228.724 339.294 237.953 345.437C242.851 348.696 251.768 349.097 259.371 348.659L261.11 370.269L285.915 360.048C285.915 360.048 283.53 336.198 282.496 327.055C287.483 322.532 295.978 320.434 295.992 312.75C295.992 310.087 294.439 305.482 288.702 305.467C281.003 305.459 282.103 314.699 282.103 314.699C281.149 315.07 280.193 315.048 279.239 314.708C271.616 314.391 250.412 311.195 235.996 286.535C234.313 294.836 230.816 305.182 223.546 312.406V312.406Z" fill="#FCBDA4"/>
<path fill-rule="evenodd" clip-rule="evenodd" d="M238.479 314.679L232.98 328.024L239.36 327.896L238.479 314.679Z" fill="#D8A490"/>
<path fill-rule="evenodd" clip-rule="evenodd" d="M244.335 315.257C244.471 317.924 246.038 320.001 247.833 319.897C249.628 319.794 250.973 317.549 250.836 314.882C250.698 312.216 249.132 310.139 247.337 310.243C245.541 310.346 244.197 312.592 244.335 315.257" fill="#0D0B6D"/>
<path fill-rule="evenodd" clip-rule="evenodd" d="M227.475 314.832C227.612 317.498 229.178 319.575 230.973 319.471C232.769 319.368 234.113 317.123 233.976 314.457C233.839 311.79 232.273 309.713 230.478 309.816C228.682 309.919 227.338 312.165 227.475 314.832" fill="#0D0B6D"/>
<path d="M240.925 334.289C240.925 334.289 245.082 335.632 249.248 330.996" stroke="#1C295E" stroke-width="3"/>
<path opacity="0.402786" fill-rule="evenodd" clip-rule="evenodd" d="M259.384 348.661C259.384 348.661 268.993 348.945 273.089 346.705L259.895 354.998L259.384 348.661Z" fill="black"/>
<path fill-rule="evenodd" clip-rule="evenodd" d="M297.997 470.006L303.132 469.931C303.132 469.931 303.124 469.85 303.117 469.679C301.349 469.804 299.639 469.909 297.997 470.006" fill="#C83820"/>
<path d="M193.363 525.71L210.315 527.837L237.617 485.092L238.613 470.884L280.206 470.266L297.959 470.006H297.997C299.639 469.909 301.349 469.805 303.117 469.679C325.478 468.116 356.459 463.764 358.585 451.712C362.441 429.886 333.266 387.528 329.818 382.618C329.602 382.313 329.492 382.15 329.492 382.15C324.602 375.157 319.681 369.719 315.089 366.825C306.156 361.193 297.781 359.958 289.822 359.981L287.69 344.515L255.222 349L256.99 361.856C247.456 362.771 240.969 364.637 234.898 370.216C215.404 388.131 213.97 455.224 213.97 455.224L193.363 525.71Z" fill="#CE3D29"/>
<path fill-rule="evenodd" clip-rule="evenodd" d="M280.206 470.266V470.564C280.206 470.564 287.652 470.579 297.96 470.006L280.206 470.266Z" fill="#C83820"/>
<path opacity="0.201149" d="M239.21 470.711C236.826 440.402 220.325 433.993 232.215 400.002" stroke="black" stroke-width="3"/>
<path fill-rule="evenodd" clip-rule="evenodd" d="M211.137 508.208L273.143 501.054C275.174 500.819 276.511 498.821 275.954 496.852L251.454 410.202C251.012 408.636 249.5 407.623 247.884 407.809L185.879 414.963C183.848 415.198 182.511 417.197 183.068 419.165L207.567 505.814C208.01 507.381 209.522 508.394 211.137 508.208" fill="#18181C"/>
<path d="M266.198 475.827C266.08 475.858 265.961 475.891 265.84 475.925C261.532 477.102 257.129 477.814 251.005 477.006C247.066 476.49 243.679 475.816 243.717 475.187C243.825 473.597 245.738 473.241 245.738 473.241L249.416 473.419L252.955 473.209C252.955 473.209 236.697 470.131 236.697 469.654C236.747 467.975 239.416 467.294 239.416 467.294C239.416 467.294 233.825 466.404 233.889 465.513C234.041 463.25 236.537 463.078 236.537 463.078C236.537 463.078 235.845 462.48 235.915 461.926C236.188 459.694 240.165 459.325 242.059 459.052C242.059 459.052 248.501 458.963 250.42 458.485C255.466 457.224 258.47 456.098 260.354 455.157L247.764 410.628C247.321 409.062 245.808 408.049 244.194 408.235L182.188 415.39C180.157 415.624 178.82 417.622 179.377 419.591L203.876 506.24C204.319 507.807 205.831 508.82 207.446 508.634L269.452 501.48C271.482 501.244 272.82 499.246 272.263 497.278L266.198 475.827V475.827Z" fill="#FCBDA4"/>
<path d="M239.416 467.294C239.416 467.294 236.747 467.975 236.696 469.654C236.696 470.131 252.955 473.209 252.955 473.209L249.416 473.419L245.737 473.241C245.737 473.241 243.825 473.597 243.717 475.187C243.679 475.816 247.065 476.49 251.005 477.006C257.129 477.814 261.532 477.102 265.84 475.925C266.202 475.823 266.551 475.734 266.888 475.645C271.323 474.481 273.299 474.265 279.003 471.154C281.533 469.774 285.262 467.04 286.818 465.653L282.708 450.427L277.041 448.488C277.041 448.488 274.411 447.457 269.969 446.636C267.18 446.122 264.458 446.325 261.58 446.014L263.215 452.012C263.399 452.145 263.61 452.596 263.769 452.768C263.647 452.87 263.527 452.984 263.387 453.111C262.212 454.186 259.989 456.094 250.42 458.485C248.501 458.963 242.059 459.052 242.059 459.052C240.165 459.325 236.188 459.694 235.915 461.926C235.845 462.479 236.537 463.078 236.537 463.078C236.537 463.078 234.041 463.249 233.889 465.513C233.825 466.404 239.416 467.294 239.416 467.294Z" fill="#FCBDA4"/>
<path fill-rule="evenodd" clip-rule="evenodd" d="M241.464 416.307C241.952 417.843 242.994 418.882 243.791 418.628C244.588 418.375 244.839 416.923 244.351 415.388C243.862 413.852 242.821 412.812 242.023 413.066C241.226 413.32 240.975 414.771 241.464 416.307" fill="#020101"/>
<path opacity="0.200498" d="M303.921 406.012L319.572 431.953L280.659 447.367" stroke="black" stroke-width="3"/>
<path fill-rule="evenodd" clip-rule="evenodd" d="M72.7944 609.373L80.4569 594.277L98.8964 597.058L73.8148 638.216L18.8003 601.666C37.7354 597.437 72.7944 609.373 72.7944 609.373ZM158.945 688.934L157.027 672.175L173.878 664.344L176.368 712.343L109.844 712.228C123.26 698.299 158.945 688.934 158.945 688.934Z" fill="#0D0B6D"/>
<path fill-rule="evenodd" clip-rule="evenodd" d="M78.516 596.418L97.2044 600.325L86.4438 617.606L70.9486 608.151L78.516 596.418ZM157.009 675.594L174.684 668.562L175.227 688.842L157.159 689.507L157.009 675.594Z" fill="#FCBDA4"/>
<path d="M130.297 580.41L139.445 679.815H181.818L179.937 535.485L260.816 536.043C283.889 536.042 306.206 516.207 304.606 493.153L302.09 469.683L178.576 433.155C155.711 427.98 147.783 434.817 132.959 461.233L67.5062 595.539L103.462 619.592L130.297 580.41Z" fill="#2F2F3D"/>
<path opacity="0.150484" fill-rule="evenodd" clip-rule="evenodd" d="M168.257 478.229V478.229L260.816 536.043L179.937 535.485L181.818 679.815H139.445L124.918 521.968C121.334 493.247 139.29 478.229 168.257 478.229" fill="#18181C"/>
</g>
<defs>
<clipPath id="clip0">
<rect width="379" height="535" fill="white" transform="matrix(-1 0 0 1 379 224)"/>
</clipPath>
</defs>
</svg>
