<svg width="114" height="70" viewBox="0 0 114 70" fill="none" xmlns="http://www.w3.org/2000/svg">
<path d="M70 35C70 54.33 54.33 70 35 70C15.67 70 0 54.33 0 35C0 15.67 15.67 0 35 0C54.33 0 70 15.67 70 35Z" fill="#002D56"/>
<path d="M9.45551 33.2786C10.4403 33.7005 11.1807 34.2606 11.6765 34.9591C12.1793 35.6575 12.4306 36.4839 12.4306 37.4382C12.4306 38.835 11.9864 39.9622 11.098 40.8197C10.2165 41.6703 9.04574 42.0956 7.58573 42.0956C6.3943 42.0956 5.39571 41.7913 4.58995 41.1828C3.78419 40.5673 3.24012 39.696 2.95776 38.5688L4.58995 37.7597C4.81033 38.6795 5.17189 39.3779 5.67463 39.855C6.18425 40.3253 6.82129 40.5604 7.58573 40.5604C8.48791 40.5604 9.21791 40.3011 9.77575 39.7824C10.3336 39.2569 10.6125 38.5757 10.6125 37.739C10.6125 37.0613 10.4162 36.4735 10.0237 35.9756C9.63801 35.4708 9.05263 35.0455 8.26753 34.6997L6.42874 33.9114C5.42326 33.4896 4.67259 32.9467 4.17674 32.2829C3.68777 31.619 3.44329 30.8237 3.44329 29.8971C3.44329 28.8183 3.84272 27.9263 4.6416 27.2209C5.44047 26.5155 6.45973 26.1629 7.69936 26.1629C8.60843 26.1629 9.39353 26.3565 10.0547 26.7437C10.7227 27.131 11.2426 27.7015 11.6145 28.4553L10.127 29.4096C9.78952 28.8218 9.41074 28.3861 8.99065 28.1026C8.57055 27.8122 8.09536 27.6669 7.56507 27.6669C6.89016 27.6669 6.33576 27.8744 5.90189 28.2893C5.47491 28.7042 5.26142 29.2332 5.26142 29.8763C5.26142 30.4157 5.4267 30.8825 5.75727 31.2767C6.08784 31.6709 6.60091 32.0201 7.29648 32.3243L9.45551 33.2786Z" fill="white"/>
<path d="M14.9202 33.5587H13.1847V32.2206H14.9202V28.393H16.5731V32.2206H18.3086V33.5587H16.5731V41.7118H14.9202V33.5587Z" fill="white"/>
<path d="M21.6659 32.2206V36.8884C21.6659 38.2507 21.8656 39.205 22.2651 39.7513C22.6714 40.2907 23.3532 40.5604 24.3104 40.5604C25.2677 40.5604 25.9426 40.2942 26.3352 39.7617C26.7346 39.2223 26.9343 38.2645 26.9343 36.8884V32.2206H28.5872V37.7597C28.5872 39.1912 28.2222 40.2769 27.4922 41.0168C26.7622 41.7498 25.6878 42.1163 24.2691 42.1163C22.8642 42.1163 21.7967 41.7464 21.0667 41.0064C20.3367 40.2665 19.9717 39.1843 19.9717 37.7597V32.2206H21.6659Z" fill="white"/>
<path d="M38.9485 37.0129C38.9485 35.9548 38.6558 35.1043 38.0704 34.4612C37.485 33.8111 36.7137 33.4861 35.7564 33.4861C34.7991 33.4861 34.0519 33.78 33.5147 34.3678C32.9776 34.9556 32.709 35.7681 32.709 36.8054C32.709 37.9741 32.981 38.8904 33.5251 39.5542C34.0691 40.2112 34.8198 40.5396 35.7771 40.5396C36.7688 40.5396 37.5435 40.2285 38.1014 39.6061C38.6661 38.9837 38.9485 38.1193 38.9485 37.0129ZM40.5187 25.6339V41.7118H38.9485V39.9899C38.5766 40.6745 38.0945 41.2001 37.5022 41.5666C36.9099 41.9331 36.2488 42.1163 35.5188 42.1163C34.1621 42.1163 33.0671 41.6495 32.2338 40.716C31.4074 39.7755 30.9941 38.5342 30.9941 36.9921C30.9941 35.4362 31.4005 34.1949 32.2131 33.2683C33.0258 32.3416 34.107 31.8783 35.4568 31.8783C36.2419 31.8783 36.9237 32.0581 37.5022 32.4177C38.0807 32.7704 38.549 33.2994 38.9071 34.0047V25.6339H40.5187Z" fill="white"/>
<path d="M43.4421 46.3381L46.004 40.7782L42.2955 32.2206H44.1652L46.9131 39.0356L49.8262 32.2206H51.603L45.2603 46.3381H43.4421Z" fill="white"/>
<path d="M65.0531 33.2786C66.0379 33.7005 66.7782 34.2606 67.2741 34.9591C67.7768 35.6575 68.0282 36.4839 68.0282 37.4382C68.0282 38.835 67.584 39.9622 66.6956 40.8197C65.8141 41.6703 64.6433 42.0956 63.1833 42.0956C61.9919 42.0956 60.9933 41.7913 60.1875 41.1828C59.3817 40.5673 58.8377 39.696 58.5553 38.5688L60.1875 37.7597C60.4079 38.6795 60.7694 39.3779 61.2722 39.855C61.7818 40.3253 62.4188 40.5604 63.1833 40.5604C64.0855 40.5604 64.8155 40.3011 65.3733 39.7824C65.9311 39.2569 66.2101 38.5757 66.2101 37.739C66.2101 37.0613 66.0138 36.4735 65.6212 35.9756C65.2356 35.4708 64.6502 35.0455 63.8651 34.6997L62.0263 33.9114C61.0208 33.4896 60.2701 32.9467 59.7743 32.2829C59.2853 31.619 59.0408 30.8237 59.0408 29.8971C59.0408 28.8183 59.4403 27.9263 60.2392 27.2209C61.038 26.5155 62.0573 26.1629 63.2969 26.1629C64.206 26.1629 64.9911 26.3565 65.6522 26.7437C66.3202 27.131 66.8402 27.7015 67.2121 28.4553L65.7245 29.4096C65.3871 28.8218 65.0083 28.3861 64.5882 28.1026C64.1681 27.8122 63.6929 27.6669 63.1626 27.6669C62.4877 27.6669 61.9333 27.8744 61.4995 28.2893C61.0725 28.7042 60.859 29.2332 60.859 29.8763C60.859 30.4157 61.0243 30.8825 61.3548 31.2767C61.6854 31.6709 62.1985 32.0201 62.894 32.3243L65.0531 33.2786Z" fill="white"/>
<path d="M73.5063 35.8072C73.5063 36.8948 73.7942 37.767 74.3701 38.4238C74.9459 39.0806 75.708 39.409 76.6564 39.409C77.5845 39.409 78.3128 39.1089 78.8412 38.5086C79.3763 37.9083 79.6439 37.0749 79.6439 36.0085C79.6439 34.8149 79.3763 33.8792 78.8412 33.2012C78.3128 32.5232 77.5743 32.1842 76.6259 32.1842C75.6572 32.1842 74.8951 32.5055 74.3396 33.1482C73.7841 33.7909 73.5063 34.6772 73.5063 35.8072ZM71.9719 45.3521V30.9341H73.486V32.7562C73.845 32.0571 74.3192 31.5203 74.9086 31.146C75.498 30.7717 76.1551 30.5845 76.88 30.5845C78.2213 30.5845 79.2984 31.0613 80.1114 32.0147C80.9243 32.9681 81.3307 34.2323 81.3307 35.8072C81.3307 37.4104 80.9311 38.6852 80.1317 39.6315C79.3391 40.5708 78.2755 41.0405 76.9409 41.0405C76.1754 41.0405 75.5082 40.8604 74.9391 40.5002C74.3701 40.1329 73.906 39.5891 73.547 38.8688V45.3521H71.9719Z" fill="#585858"/>
<path d="M90.9944 35.8708C90.9944 34.7761 90.7065 33.8968 90.1307 33.233C89.5616 32.562 88.8164 32.2266 87.8951 32.2266C86.9399 32.2266 86.1948 32.5338 85.6596 33.1482C85.1244 33.7626 84.8568 34.6207 84.8568 35.7225C84.8568 36.8948 85.1244 37.7988 85.6596 38.4344C86.2015 39.0701 86.967 39.3879 87.9561 39.3879C88.9045 39.3879 89.6463 39.0806 90.1815 38.4662C90.7234 37.8447 90.9944 36.9796 90.9944 35.8708ZM92.539 30.9341V40.6273H90.9944V38.8688C90.6218 39.575 90.1442 40.1153 89.5616 40.4896C88.9858 40.8568 88.3388 41.0405 87.6208 41.0405C86.2862 41.0405 85.2091 40.5638 84.3894 39.6103C83.5765 38.6498 83.17 37.3821 83.17 35.8072C83.17 34.2111 83.5663 32.9434 84.3589 32.0041C85.1515 31.0577 86.2117 30.5845 87.5395 30.5845C88.3185 30.5845 88.9926 30.7682 89.5616 31.1354C90.1374 31.4956 90.6015 32.0359 90.9538 32.7562V30.9341H92.539Z" fill="#585858"/>
<path d="M102.863 38.3285V40.2565C102.443 40.5179 101.969 40.7121 101.441 40.8392C100.919 40.9734 100.353 41.0405 99.7435 41.0405C98.3074 41.0405 97.1489 40.5673 96.2683 39.6209C95.3944 38.6675 94.9574 37.4174 94.9574 35.8708C94.9574 34.317 95.4113 33.0493 96.3191 32.0677C97.2268 31.0789 98.3887 30.5845 99.8045 30.5845C100.319 30.5845 100.821 30.641 101.308 30.754C101.803 30.867 102.267 31.033 102.701 31.2519V33.0317C102.294 32.7562 101.874 32.5479 101.441 32.4066C101.007 32.2583 100.567 32.1842 100.12 32.1842C99.0763 32.1842 98.2396 32.5267 97.6096 33.2118C96.9796 33.8898 96.6646 34.7938 96.6646 35.9237C96.6646 36.9195 96.9796 37.7529 97.6096 38.4238C98.2464 39.0948 99.0424 39.4302 99.9976 39.4302C100.479 39.4302 100.949 39.342 101.41 39.1654C101.871 38.9888 102.355 38.7099 102.863 38.3285Z" fill="#585858"/>
<path d="M111.673 34.6843C111.619 33.8297 111.345 33.1729 110.85 32.7139C110.362 32.2477 109.692 32.0147 108.838 32.0147C108.066 32.0147 107.422 32.2583 106.907 32.7456C106.393 33.2259 106.095 33.8721 106.013 34.6843H111.673ZM113.38 36.0297H106.013V36.178C106.013 37.2162 106.298 38.0566 106.867 38.6993C107.436 39.3349 108.178 39.6527 109.092 39.6527C109.715 39.6527 110.278 39.4797 110.779 39.1336C111.28 38.7805 111.724 38.2508 112.11 37.5446L113.319 38.3921C112.852 39.2678 112.256 39.9281 111.531 40.3731C110.806 40.818 109.966 41.0405 109.011 41.0405C107.595 41.0405 106.45 40.5532 105.576 39.5785C104.702 38.6039 104.265 37.3256 104.265 35.7436C104.265 34.2252 104.699 32.9822 105.566 32.0147C106.433 31.0471 107.548 30.5634 108.909 30.5634C110.284 30.5634 111.372 31.0224 112.171 31.9405C112.977 32.8586 113.38 34.1122 113.38 35.7013V36.0297Z" fill="#585858"/>
</svg>
